<?xml version="1.0" encoding="UTF-8"?> <svg xmlns="http://www.w3.org/2000/svg" id="Capa_1" data-name="Capa 1" viewBox="0 0 539.24 140.6"><defs><style>.cls-1{fill:#f96349;}</style></defs><title>logo</title><g id="_Grupo_" data-name="&lt;Grupo&gt;"><g id="_Grupo_2" data-name="&lt;Grupo&gt;"><path id="_Trazado_compuesto_" data-name="&lt;Trazado compuesto&gt;" class="cls-1" d="M71.7,148.31H92.9L55,44.39H39.05L1.25,148.31H23.06L47.51,75Zm85.41-85.82h27.15V44.39H109.68v18.1h27.15v85.82h20.28Zm64.08,85.82h20.28V44.39H221.19Zm115.15-79.4,13.43-13.43c-7.45-7.3-15.62-12-28.9-12a38.25,38.25,0,0,0-28,11.39c-10.51,10.5-10.22,23.5-10.22,41.45s-.29,30.94,10.22,41.44a38.25,38.25,0,0,0,28,11.39c13.28,0,21.45-4.67,28.9-12l-13.43-13.42c-4.53,4.52-8.17,7.29-15.47,7.29-5.55,0-9.93-2-12.85-5.4-3.94-4.38-5.11-9.34-5.11-29.33s1.17-25,5.11-29.34c2.92-3.36,7.3-5.4,12.85-5.4,7.3,0,10.94,2.77,15.47,7.3" transform="translate(-1.25 -8.58)"></path><path id="_Trazado_" data-name="&lt;Trazado&gt;" class="cls-1" d="M441.72,137.21l-13.43-13.43c-4.52,4.53-8.18,7.31-15.47,7.31-5.55,0-9.93-2.05-12.85-5.41-3.94-4.38-5.1-9.34-5.1-29.34S396,71.39,400,67c2.92-3.36,7.3-5.4,12.85-5.4,7.29,0,10.95,2.77,15.47,7.3l13.43-13.43c-7.45-7.3-15.62-12-28.9-12a38.28,38.28,0,0,0-28,11.38c-10.51,10.51-10.22,23.5-10.22,41.45s-.29,31,10.22,41.46a38.24,38.24,0,0,0,28,11.38c13.28,0,21.45-4.67,28.9-12" transform="translate(-1.25 -8.58)"></path><rect id="_Trazado_2" data-name="&lt;Trazado&gt;" class="cls-1" x="20.5" width="49.87" height="18.39"></rect><path id="_Trazado_compuesto_2" data-name="&lt;Trazado compuesto&gt;" class="cls-1" d="M540.49,96.35c0-17.61.25-30.44-9.65-40.84l0,0-.37-.35-.22-.24a39.84,39.84,0,0,0-5.06-4.25l-.19-.15c-.61-.42-1.23-.82-1.85-1.21s-1.22-.77-1.86-1.12l-.38-.2a36.23,36.23,0,0,0-14.39-4.24c-1.4-.14-2.83-.21-4.3-.21H502q-2.19,0-4.29.21A36.23,36.23,0,0,0,483.28,48l-.39.2c-.63.35-1.24.73-1.84,1.12s-1.26.79-1.87,1.22l-.17.13a40.72,40.72,0,0,0-5.07,4.26l-.23.26-.36.33,0,0c-9.9,10.4-9.65,23.23-9.65,40.83s-.25,30.44,9.65,40.85l0,0,.36.34.23.25a40.18,40.18,0,0,0,5.08,4.27l.16.12c.61.44,1.24.84,1.87,1.23s1.21.76,1.84,1.11l.39.21A36.39,36.39,0,0,0,497.67,149q2.1.21,4.29.21h.28c1.47,0,2.9-.07,4.3-.21a36.23,36.23,0,0,0,14.39-4.24l.38-.2c.64-.35,1.25-.73,1.86-1.12s1.25-.78,1.85-1.21l.19-.15a40.54,40.54,0,0,0,5.06-4.25l.22-.24c.12-.12.25-.22.37-.35l0,0c9.9-10.4,9.65-23.23,9.65-40.83m-28.88,32.26L511,129l-.91.46-.78.35c-.33.13-.67.25-1,.37s-.58.18-.89.26-.63.18-.95.25q-.81.17-1.68.27l-.33.05c-.74.07-1.54.11-2.37.12s-1.64-.05-2.38-.12l-.33-.05q-.87-.1-1.68-.27c-.32-.07-.64-.16-1-.24l-.9-.27c-.34-.12-.68-.24-1-.37l-.8-.36-.89-.44-.59-.36a15,15,0,0,1-3.47-2.92c-3.94-4.38-5.11-9.34-5.11-29.34s1.17-25,5.11-29.33a15,15,0,0,1,3.47-2.92l.59-.35c.29-.16.59-.31.89-.45l.8-.36c.32-.13.66-.25,1-.36l.9-.28,1-.23c.54-.12,1.1-.21,1.68-.28l.33-.05c.74-.07,1.54-.11,2.38-.12s1.63,0,2.37.12l.33.05c.58.07,1.14.16,1.68.28.32.07.64.15.95.24s.6.17.89.26.69.24,1,.38.52.22.78.35.61.29.91.45l.57.34A15.13,15.13,0,0,1,515.09,67c3.94,4.38,5.11,9.34,5.11,29.34s-1.17,25-5.11,29.33a14.88,14.88,0,0,1-3.48,2.93" transform="translate(-1.25 -8.58)"></path></g></g></svg> 